<?xml version="1.0" encoding="utf-8"?>
<!-- Generator: Adobe Illustrator 19.1.0, SVG Export Plug-In . SVG Version: 6.00 Build 0)  -->
<svg version="1.1" id="Layer_1" xmlns="http://www.w3.org/2000/svg" xmlns:xlink="http://www.w3.org/1999/xlink" x="0px" y="0px"
	 viewBox="0 0 300 161.5" style="enable-background:new 0 0 300 161.5;" xml:space="preserve">
<style type="text/css">
	.st0{fill:#FFFFFF;}
</style>
<rect x="0" y="0" class="st0" width="300" height="161.5"/>
<path d="M0,0v161.5h300V0H0z M287.7,149.5H12.3v-8.4l92.5-56.1l45.3,35.8l44.7-35.5l92.8,56.4V149.5z M287.7,140.6l-84.2-61.8
	l84.2-66.9l-92.5,60.9L185,79.7l-34.8,23l-35.5-23.3l-10.2-6.9L12.6,12.2c0-0.3-0.3-0.3-0.3-0.3l0,0l0,0l83.9,66.6l-83.9,61.2V11.9
	h275.3V140.6z"/>
</svg>
