<?xml version="1.0" encoding="utf-8"?>
<!-- Generator: Adobe Illustrator 19.1.0, SVG Export Plug-In . SVG Version: 6.00 Build 0)  -->
<svg version="1.1" id="Layer_1" xmlns="http://www.w3.org/2000/svg" xmlns:xlink="http://www.w3.org/1999/xlink" x="0px" y="0px"
	 viewBox="0 0 428 438.7" style="enable-background:new 0 0 428 438.7;" xml:space="preserve">
<style type="text/css">
	.st0{stroke:#000000;stroke-miterlimit:10;}
</style>
<path class="st0" d="M425.6,159l-39.1-29V44c0-2.2-1.3-3.8-3.5-3.8h-73.3c-2.2,0-4.2,1.6-4.2,3.8v25.5L214,1.3
	c-1.4-1.1-3.4-1.1-4.8,0L2.1,159c-1,0.8-1.6,1.9-1.6,3.2v272c0,2.2,1.8,4,4,4h148c2.2,0,4-1.8,4-4v-100c0-2.2,1.8-4,4-4h103
	c2.2,0,4,1.8,4,4v100c0,2.2,1.8,4,4,4h152c2.2,0,4-1.8,4-4v-272C427.5,160.9,426.7,159.7,425.6,159z"/>
</svg>
