<?xml version="1.0" encoding="utf-8"?>
<!-- Generator: Adobe Illustrator 19.1.0, SVG Export Plug-In . SVG Version: 6.00 Build 0)  -->
<svg version="1.1" xmlns="http://www.w3.org/2000/svg" xmlns:xlink="http://www.w3.org/1999/xlink" x="0px" y="0px"
	 viewBox="0 0 403 372" style="enable-background:new 0 0 403 372;" xml:space="preserve">
<style type="text/css">
	.st0{stroke:#000000;stroke-width:4;stroke-miterlimit:10;}
	.st1{fill:none;stroke:#000000;stroke-width:32;stroke-miterlimit:10;}
</style>
<g id="Layer_1">
	<path class="st0" d="M206.1,64.9c2.9,1.6,3.9,2,5.9,3.6V109h185.4c1.6,1,2.6,1.5,3.6,3.1v68.8v68.5c-1,1.6-2.1,2.7-3.6,3.7H212
		v39.9c-2,1.6-3,2-5.9,3.6L59,184.7c0-1.5,0-2.8,0-3.8s0-2.6,0-4.2L206.1,64.9z"/>
</g>
<g id="Layer_2">
	<path class="st1" d="M213,356H18c-0.8-0.8-1.2-1.2-2-2V18c0.8-0.8,1.2-1.2,2-2h195"/>
</g>
</svg>
